<svg width="29" height="29" viewBox="0 0 29 29" fill="none" xmlns="http://www.w3.org/2000/svg">
<path fill-rule="evenodd" clip-rule="evenodd" d="M10.8751 4.53125C9.83473 4.53507 8.83808 4.95004 8.10243 5.68569C7.36679 6.42133 6.95182 7.41798 6.948 8.45833V20.5417C6.948 20.782 6.85252 21.0125 6.68256 21.1825C6.51261 21.3524 6.2821 21.4479 6.04175 21.4479C5.8014 21.4479 5.57089 21.3524 5.40093 21.1825C5.23098 21.0125 5.1355 20.782 5.1355 20.5417V8.45833C5.13933 6.93728 5.74526 5.47962 6.82081 4.40406C7.89636 3.32851 9.35403 2.72258 10.8751 2.71875H18.1251C19.6461 2.72258 21.1038 3.32851 22.1793 4.40406C23.2549 5.47962 23.8608 6.93728 23.8647 8.45833V20.5417C23.8608 22.0627 23.2549 23.5204 22.1793 24.5959C21.1038 25.6715 19.6461 26.2774 18.1251 26.2812C17.8847 26.2812 17.6542 26.1858 17.4843 26.0158C17.3143 25.8459 17.2188 25.6154 17.2188 25.375C17.2188 25.1346 17.3143 24.9041 17.4843 24.7342C17.6542 24.5642 17.8847 24.4688 18.1251 24.4688C19.1654 24.4649 20.1621 24.05 20.8977 23.3143C21.6334 22.5787 22.0483 21.582 22.0522 20.5417V8.45833C22.0483 7.41798 21.6334 6.42133 20.8977 5.68569C20.1621 4.95004 19.1654 4.53507 18.1251 4.53125H10.8751Z" fill="#CF0E0E"/>
<path fill-rule="evenodd" clip-rule="evenodd" d="M18.1249 15.7084C17.7624 15.7084 17.5208 15.5876 17.2791 15.3459C17.1583 15.2251 17.0374 15.1042 17.0374 14.9834C16.9166 14.7417 16.9166 14.6209 16.9166 14.5001C16.9166 14.1376 17.0374 13.7751 17.1583 13.5334C17.6416 13.0501 18.3666 13.0501 18.8499 13.5334C19.0916 13.7751 19.2124 14.0167 19.2124 14.3792C19.2124 14.5001 19.2124 14.7417 19.0916 14.8626C18.9708 14.9834 18.9708 15.1042 18.8499 15.2251C18.7291 15.4667 18.3666 15.7084 18.1249 15.7084ZM7.67285 22.2334C7.67285 21.993 7.76833 21.7625 7.93829 21.5926C8.10824 21.4226 8.33875 21.3271 8.5791 21.3271H13.8958C14.1361 21.3271 14.3666 21.4226 14.5366 21.5926C14.7065 21.7625 14.802 21.993 14.802 22.2334C14.802 22.4738 14.7065 22.7043 14.5366 22.8742C14.3666 23.0442 14.1361 23.1396 13.8958 23.1396H8.5791C8.33875 23.1396 8.10824 23.0442 7.93829 22.8742C7.76833 22.7043 7.67285 22.4738 7.67285 22.2334Z" fill="#CF0E0E"/>
<path fill-rule="evenodd" clip-rule="evenodd" d="M11.4428 19.1762C11.6127 19.0065 11.843 18.9111 12.0832 18.9111C12.3233 18.9111 12.5537 19.0065 12.7236 19.1762L14.8986 21.3512C15.041 21.4959 15.1438 21.6748 15.1971 21.8708C15.2755 22.1472 15.2755 22.4401 15.1971 22.7166C15.1432 22.9123 15.0405 23.0911 14.8986 23.2362L12.7236 25.4112C12.5518 25.5713 12.3246 25.6584 12.0898 25.6543C11.855 25.6501 11.631 25.555 11.465 25.389C11.2989 25.2229 11.2038 24.9989 11.1997 24.7641C11.1955 24.5294 11.2827 24.3021 11.4428 24.1303L13.2794 22.2937L11.4428 20.457C11.2731 20.2871 11.1777 20.0567 11.1777 19.8166C11.1777 19.5764 11.2731 19.3461 11.4428 19.1762Z" fill="#CF0E0E"/>
</svg>
