<svg width="89" height="84" viewBox="0 0 89 84" fill="none" xmlns="http://www.w3.org/2000/svg">
<path fill-rule="evenodd" clip-rule="evenodd" d="M63.525 0.00037934H21.8087C21.0071 12.4566 12.0528 21.0108 0.5271 24.0123C3.77909 51.2209 18.6777 72.9667 44.4668 83.9672C66.4291 74.5425 82.5831 56.8337 87.3477 34.6526C91.5223 15.8633 83.9596 -0.0896655 63.525 0.00037934ZM84.3831 33.9923C79.6639 55.543 64.4779 71.631 44.4819 80.6355C21.7936 70.5955 7.56047 51.1608 3.86984 26.1584C14.5636 22.5266 22.7011 14.3625 24.5313 3.04689H63.5401C82.0235 2.97186 88.0737 17.1989 84.3831 33.9923Z" fill="white"/>
<path fill-rule="evenodd" clip-rule="evenodd" d="M50.3544 32.4777L70.2551 30.9395C70.4601 30.9395 70.6566 30.8536 70.8015 30.7007C70.9464 30.5479 71.0278 30.3405 71.0278 30.1243C71.0278 29.9081 70.9464 29.7007 70.8015 29.5479C70.6566 29.395 70.4601 29.3091 70.2551 29.3091H49.64L50.3544 32.4777Z" fill="white"/>
<path fill-rule="evenodd" clip-rule="evenodd" d="M29.5354 37.2544C29.4173 37.5366 29.3791 37.8444 29.4246 38.1458C29.4701 38.4473 29.5977 38.7314 29.7943 38.9689C29.9908 39.2063 30.2491 39.3885 30.5425 39.4965C30.8359 39.6044 31.1536 39.6343 31.4629 39.583C33.3296 39.1851 36.4258 35.3973 37.6855 33.894L38.1863 33.1423L42.7394 32.818L43.6045 29.2218H40.7361L49.2808 16.8561L54.7293 15.0433C55.4123 14.8075 55.215 14.3358 54.8659 14.3358H49.7512L49.2049 8.95624C49.1891 8.88749 49.1497 8.82601 49.0932 8.78195C49.0366 8.73788 48.9663 8.71387 48.8937 8.71387C48.8212 8.71387 48.7509 8.73788 48.6943 8.78195C48.6377 8.82601 48.5983 8.88749 48.5826 8.95624L46.9131 14.3653H41.586C41.1307 14.3653 41.07 14.8812 41.586 15.0728L46.4426 16.8561L35.0143 29.2808H10.8676C10.6462 29.2808 10.4339 29.3662 10.2773 29.5182C10.1208 29.6702 10.0328 29.8764 10.0328 30.0914C10.0328 30.3064 10.1208 30.5126 10.2773 30.6646C10.4339 30.8166 10.6462 30.902 10.8676 30.902L31.8423 33.4665C30.9365 34.6457 30.1631 35.9155 29.5354 37.2544Z" fill="white"/>
<path fill-rule="evenodd" clip-rule="evenodd" d="M47.5707 51.3873L45.3516 40.3976L42.7304 51.3873H47.5707ZM61.1088 54.857L66.2917 48.5431V48.3197C66.2917 47.6198 65.8896 46.9646 64.6237 46.9646V45.4755H71.0278V46.9646C69.4491 46.9646 69.4045 47.5752 69.4045 49.1536V56.4801C69.4045 58.1033 69.5236 58.6692 71.0278 58.6692V60.1583H64.6237V58.6245C66.113 58.6245 66.2917 58.1033 66.2917 56.4355V50.7768L61.1088 57.1354V57.4034C61.1088 58.282 61.6003 58.6692 62.7769 58.6692V60.1583H46.841V58.6245C47.9877 58.6245 48.7324 58.5351 48.7324 57.4034C48.5992 55.9187 48.335 54.4487 47.9431 53.0105H42.2091L41.4644 55.9887C40.8836 57.9246 41.1219 58.6245 43.1772 58.6245V60.1136H29.8923V58.6245C31.471 58.6245 31.6497 58.1033 31.6497 56.4355V49.6897L27.6136 59.6818L23.5328 49.377V56.6588C23.5328 58.0586 23.7115 58.7138 25.2455 58.7138V60.203H20.3307V58.6245C21.9988 58.6245 22.0881 57.6119 22.0881 56.2121V49.1536C22.0881 47.8879 22.0881 46.9646 20.4647 46.9646V45.4755H25.6774L28.537 53.0105L31.3816 45.4755H36.4156V46.9646C34.8369 46.9646 34.7922 47.5752 34.7922 49.1536V56.4801C34.7922 57.8799 34.9262 58.3267 35.3581 58.4607C36.3262 58.8032 38.1283 58.7138 38.6496 57.6566C39.1392 56.6206 39.5234 55.538 39.7964 54.4252L46.5878 27.7251L52.7983 53.9337C53.4536 56.7929 53.8558 57.4928 54.4664 58.1033C55.077 58.7138 57.0876 59.0266 57.8025 58.2373C57.9663 58.0586 58.0557 57.7459 58.0557 56.4801V49.1536C58.0557 47.4858 57.9217 46.9646 56.3876 46.9646V45.4755H62.7769V46.9646C61.1982 46.9646 61.1088 47.6198 61.1088 49.1536V54.857Z" fill="white"/>
</svg>
