<svg width="35" height="42" viewBox="0 0 35 42" fill="none" xmlns="http://www.w3.org/2000/svg">
<path d="M17.5001 4.07692C11.6582 4.07692 6.92249 8.31565 6.92249 13.5444C6.92249 15.5146 7.34281 17.107 6.10118 20.6449C5.64403 21.9475 3.78583 24.591 1.82508 27.1705C-0.30227 29.9692 1.92525 33.8205 5.75278 33.8205C13.5842 33.8205 21.4158 33.8205 29.2473 33.8205C33.0748 33.8205 35.3023 29.9692 33.1749 27.1705C31.2143 24.591 29.356 21.9475 28.8989 20.6449C27.6573 17.107 28.0775 15.5146 28.0775 13.5444C28.0775 8.31565 23.3419 4.07692 17.5001 4.07692ZM17.5001 4.07692V1M24.4965 33.8205V34.8462C24.4965 38.9245 21.364 41 17.5001 41C13.636 41 10.5036 38.9245 10.5036 34.8462V33.8205" stroke="white" stroke-width="2" stroke-linecap="round"/>
</svg>
