<svg width="24" height="24" viewBox="0 0 24 24" fill="none" xmlns="http://www.w3.org/2000/svg">
<path d="M22.0736 10.5417C23.02 9.85342 22.5332 8.35605 21.3629 8.35605H16.7656C15.711 8.35605 14.7781 7.67212 14.4608 6.6663L12.9401 1.84487C12.5849 0.718377 10.9907 0.718377 10.6354 1.84487L9.1147 6.6663C8.79747 7.67212 7.86461 8.35605 6.80995 8.35605H2.21261C1.0423 8.35605 0.555449 9.85342 1.502 10.5417L5.59651 13.5189C6.48138 14.1622 6.82362 15.3199 6.43087 16.341L4.65461 20.9591C4.22246 22.0827 5.51957 23.0781 6.49312 22.3701L10.3664 19.5532C11.2138 18.9368 12.3618 18.9368 13.2092 19.5532L17.0824 22.3701C18.056 23.0781 19.3531 22.0827 18.9209 20.9591L17.1446 16.341C16.7519 15.3199 17.0941 14.1622 17.979 13.5189L22.0736 10.5417Z" stroke="#FFA600" stroke-width="2" stroke-linecap="round"/>
</svg>
