<svg width="19" height="18" viewBox="0 0 19 18" fill="none" xmlns="http://www.w3.org/2000/svg">
<path d="M0.734131 17.2534H17.8652M11.1351 12.3588V2.56966C11.1351 1.99951 11.1351 1.71444 11.2282 1.48957C11.3524 1.18974 11.5907 0.951523 11.8905 0.827336C12.1154 0.734192 12.4005 0.734192 12.9706 0.734192C13.5407 0.734192 13.8258 0.734192 14.0507 0.827336C14.3505 0.951523 14.5887 1.18974 14.7129 1.48957C14.806 1.71444 14.806 1.99951 14.806 2.56966V12.3588C14.806 12.9289 14.806 13.214 14.7129 13.4389C14.5887 13.7387 14.3505 13.977 14.0507 14.1012C13.8258 14.1943 13.5407 14.1943 12.9706 14.1943C12.4005 14.1943 12.1154 14.1943 11.8905 14.1012C11.5907 13.977 11.3524 13.7387 11.2282 13.4389C11.1351 13.214 11.1351 12.9289 11.1351 12.3588ZM3.79324 12.3588V7.46424C3.79324 6.89414 3.79324 6.60903 3.88639 6.38412C4.01059 6.08432 4.24879 5.8461 4.54862 5.72191C4.77349 5.62877 5.05856 5.62877 5.62871 5.62877C6.19885 5.62877 6.48393 5.62877 6.70879 5.72191C7.00861 5.8461 7.24685 6.08432 7.37105 6.38412C7.46417 6.60903 7.46417 6.89414 7.46417 7.46424V12.3588C7.46417 12.9289 7.46417 13.214 7.37105 13.4389C7.24685 13.7387 7.00861 13.977 6.70879 14.1012C6.48393 14.1943 6.19885 14.1943 5.62871 14.1943C5.05856 14.1943 4.77349 14.1943 4.54862 14.1012C4.24879 13.977 4.01057 13.7387 3.88639 13.4389C3.79324 13.214 3.79324 12.9289 3.79324 12.3588Z" stroke="white" stroke-width="1.46837" stroke-linecap="round"/>
</svg>
