<svg width="40" height="40" viewBox="0 0 40 40" fill="none" xmlns="http://www.w3.org/2000/svg">
<path d="M32.9447 11.1137C32.6177 10.584 32.0807 10.1961 31.4515 10.0379C30.8208 9.87972 30.1505 9.96292 29.5862 10.2688C28.6483 10.7761 27.5177 10.7755 26.5805 10.2672L25.6092 9.74055C24.73 9.26377 24.1825 8.34388 24.1825 7.34375C24.1825 6.06875 23.085 5 21.7278 5H18.272C16.9148 5 15.8173 6.06875 15.8173 7.34375C15.8173 8.34395 15.2699 9.26393 14.3908 9.74107L13.4207 10.2676C12.4835 10.7764 11.3525 10.7768 10.4149 10.2688C9.85053 9.96292 9.1788 9.8797 8.5483 10.0379C7.91902 10.1961 7.38217 10.584 7.05502 11.1137L5.32953 13.9215C5.00367 14.4512 4.915 15.0817 5.08357 15.6723C5.25212 16.2641 5.66413 16.768 6.22848 17.0738C7.15182 17.575 7.72693 18.5413 7.72725 19.5918L7.72748 20.4082C7.7278 21.4587 7.15298 22.425 6.22973 22.9262C5.66538 23.2332 5.2521 23.736 5.08357 24.3265C4.91502 24.9183 5.00365 25.5488 5.32953 26.0785L7.05752 28.8863C7.38337 29.416 7.92025 29.8038 8.54955 29.9622C9.18008 30.1203 9.85053 30.0372 10.4161 29.7312C11.3539 29.2238 12.4845 29.2245 13.4218 29.7328L14.3895 30.2577C15.2693 30.7348 15.8173 31.6553 15.8173 32.6563C15.8173 33.9313 16.9147 35 18.272 35H21.7268C23.0852 35 24.1815 33.9313 24.1815 32.6563C24.1822 31.6553 24.7307 30.735 25.6105 30.2578L26.5793 29.7327C27.5167 29.2243 28.6473 29.2238 29.5852 29.7312C30.1507 30.037 30.8212 30.1203 31.4505 29.9622C32.081 29.8038 32.6178 29.416 32.9437 28.8863L34.6705 26.0785C34.9963 25.5488 35.085 24.9183 34.9165 24.3277C34.7478 23.736 34.3358 23.232 33.7715 22.9262C32.8482 22.425 32.2733 21.4587 32.2733 20.4082V19.5918C32.2733 18.5413 32.8482 17.575 33.7715 17.0738C34.3358 16.7668 34.7478 16.264 34.9165 15.6734C35.085 15.0816 34.9963 14.4511 34.6705 13.9215L32.9447 11.1137Z" stroke="white" stroke-width="2" stroke-linecap="round"/>
<path d="M25 20C25 22.7615 22.7615 25 20 25C17.2385 25 15 22.7615 15 20C15 17.2385 17.2385 15 20 15C22.7615 15 25 17.2385 25 20Z" stroke="white" stroke-width="2" stroke-linecap="round"/>
</svg>
